
<svg version="1.1" id="Layer_1" xmlns="http://www.w3.org/2000/svg" xmlns:xlink="http://www.w3.org/1999/xlink" x="0px" y="0px"
	 width="500px" height="500px" viewBox="0 0 1920 1080" enable-background="new 0 0 1920 1080" xml:space="preserve">
<g>
	<path fill="#007297" d="M958.946,547.834l8.115,19.234c-16.53,16.228-36.666,24.643-58.304,24.643
		c-40.873,0-70.325-30.353-70.325-68.822c0-39.07,30.654-69.423,69.723-69.423c32.457,0,57.402,21.337,62.211,54.697
		l-107.291,34.861c7.213,17.433,24.043,29.453,45.982,29.453C927.691,572.476,944.52,564.363,958.946,547.834z M859.168,522.889
		v1.202l86.554-27.951c-5.71-14.425-20.437-23.44-37.867-23.44C880.507,472.7,859.168,494.938,859.168,522.889z"/>
	<path fill="#007297" d="M986.421,374.426l21.038-4.208v218.489h-21.038V374.426z"/>
	<path fill="#007297" d="M1144.232,547.834l8.115,19.234c-16.53,16.228-36.666,24.643-58.304,24.643
		c-40.873,0-70.325-30.353-70.325-68.822c0-39.07,30.654-69.423,69.723-69.423c32.457,0,57.402,21.337,62.211,54.697
		l-107.291,34.861c7.213,17.433,24.043,29.453,45.982,29.453C1112.977,572.476,1129.806,564.363,1144.232,547.834z
		 M1044.455,522.889v1.202l86.554-27.951c-5.71-14.425-20.437-23.44-37.867-23.44C1065.793,472.7,1044.455,494.938,1044.455,522.889
		z"/>
	<path fill="#007297" d="M1281.283,456.47l-66.118,138.247l-66.117-138.247h23.442l42.676,92.865l42.676-92.865H1281.283z"/>
	<path fill="#007297" d="M1354.914,588.707l-0.902-9.016c-8.715,7.512-20.135,12.02-33.059,12.02
		c-27.949,0-49.589-21.337-49.589-48.385s21.639-48.387,49.589-48.387c13.223,0,23.442,4.51,31.557,11.421v-8.113
		c0-17.131-7.213-25.848-28.551-25.848c-11.421,0-21.94,2.405-32.158,6.012l3.907-19.536c9.918-3.306,19.234-4.807,29.152-4.807
		c32.158,0,48.687,15.627,48.687,42.375v66.719l0.902,25.546H1354.914z M1354.313,543.326c0-17.131-14.125-30.353-31.556-30.353
		c-17.432,0-31.256,13.222-31.256,30.353c0,17.131,13.824,30.353,31.256,30.353C1340.488,573.679,1354.313,560.155,1354.313,543.326
		z"/>
	<path fill="#007297" d="M1421.307,475.704v75.135c0,13.524,7.513,20.736,19.234,20.736c6.612,0,14.726-2.103,19.234-4.208v19.536
		c-4.508,2.103-12.622,4.206-21.338,4.206c-23.141,0-38.168-14.424-38.168-38.768v-76.637h-19.535l3.607-19.234h15.927v-29.151
		l21.038-12.623v41.774h38.468v19.234H1421.307z"/>
	<path fill="#007297" d="M1579.692,547.834l8.115,19.234c-16.53,16.228-36.666,24.643-58.304,24.643
		c-40.873,0-70.325-30.353-70.325-68.822c0-39.07,30.654-69.423,69.723-69.423c32.458,0,57.402,21.337,62.211,54.697
		l-107.291,34.861c7.213,17.433,24.043,29.453,45.982,29.453C1548.437,572.476,1565.266,564.363,1579.692,547.834z
		 M1479.915,522.889v1.202l86.554-27.951c-5.71-14.425-20.437-23.44-37.867-23.44C1501.253,472.7,1479.915,494.938,1479.915,522.889
		z"/>
</g>
<g>
	<path fill="#007297" d="M838.432,654.692c0-18.765,14.993-33.482,34.217-33.482c19.133,0,34.219,14.717,34.219,33.482
		c0,18.764-15.086,33.481-34.219,33.481C853.426,688.173,838.432,673.456,838.432,654.692z M893.438,654.692
		c0-11.867-9.106-21.065-20.789-21.065c-11.681,0-20.787,9.198-20.787,21.065c0,11.774,9.106,20.972,20.787,20.972
		C884.332,675.664,893.438,666.466,893.438,654.692z"/>
	<path fill="#007297" d="M952.482,686.886l-16.557-26.4v26.4h-12.97v-64.389h18.488c14.902,0,23.548,8.554,23.548,20.237
		c0,9.015-5.518,16.005-14.349,18.672l17.385,25.48H952.482z M935.925,654.047h3.955c7.45,0,11.865-4.322,11.865-10.485
		c0-5.98-4.415-10.21-11.865-10.21h-3.955V654.047z"/>
	<path fill="#007297" d="M1021.619,672.629h-22.812l-6.163,14.257h-14.257l31.826-66.688l31.918,66.688h-14.349L1021.619,672.629z
		 M1016.836,661.499l-6.623-15.361l-6.622,15.361H1016.836z"/>
	<path fill="#007297" d="M1091.996,674.377l-1.931,12.509h-35.689v-63.652l13.061-1.565v52.707H1091.996z"/>
	<path fill="#007297" d="M1128.871,654.692c0-18.765,15.085-33.482,34.678-33.482c5.887,0,11.406,1.287,16.097,3.587l-2.024,12.878
		c-4.047-2.391-9.015-3.956-13.982-3.956c-12.05,0-21.248,9.106-21.248,20.973c0,11.774,9.198,20.88,21.248,20.88
		c5.059,0,10.026-1.564,14.81-4.508l2.023,12.878c-5.335,2.759-11.313,4.231-17.292,4.231
		C1143.864,688.173,1128.871,673.456,1128.871,654.692z"/>
	<path fill="#007297" d="M1234.469,672.629h-22.812l-6.163,14.257h-14.257l31.826-66.688l31.918,66.688h-14.349L1234.469,672.629z
		 M1229.686,661.499l-6.623-15.361l-6.622,15.361H1229.686z"/>
	<path fill="#007297" d="M1296.752,686.886l-16.557-26.4v26.4h-12.97v-64.389h18.488c14.902,0,23.548,8.554,23.548,20.237
		c0,9.015-5.518,16.005-14.349,18.672l17.385,25.48H1296.752z M1280.195,654.047h3.955c7.45,0,11.865-4.322,11.865-10.485
		c0-5.98-4.415-10.21-11.865-10.21h-3.955V654.047z"/>
	<path fill="#007297" d="M1365.712,675.204l-1.748,11.682h-37.344v-64.389h36.241l1.839,11.591h-25.204v14.073h20.604v11.682
		h-20.604v15.361H1365.712z"/>
</g>
<g>
	<path fill="#007297" d="M1397.62,656.243c-9.173,0.184-17.056-7.698-16.871-16.871c-0.186-9.128,7.697-17.056,16.871-16.872
		c9.126-0.184,17.056,7.744,16.871,16.872C1414.676,648.545,1406.746,656.427,1397.62,656.243z M1397.62,626.926
		c-6.776-0.139-12.584,5.67-12.445,12.447c-0.139,6.775,5.669,12.584,12.445,12.445c6.776,0.139,12.584-5.67,12.445-12.445
		C1410.203,632.596,1404.396,626.787,1397.62,626.926z M1405.825,647.669h-6.592l-3.089-6.499v6.499h-5.9v-17.194h8.113
		c4.149,0,6.868,2.26,6.868,5.44c0,2.397-1.198,4.195-3.226,4.978L1405.825,647.669z M1397.389,638.358
		c1.106,0,1.89-0.692,1.89-1.798c0-1.06-0.783-1.751-1.89-1.751h-1.245v3.549H1397.389z"/>
</g>
<path fill="#007297" d="M561.612,553.195c-39.028-14.176-74.351-33.193-104.979-55.558l-44.179,89.069
	c10.275,13.458,21.489,26.486,33.605,38.952c32.228,33.157,68.094,59.513,105.021,78.647l54.472-137.709
	C590.928,562.964,576.252,558.513,561.612,553.195z"/>
<path fill="#007297" d="M741.028,404.296c-17.46-23.661-39.801-44.325-66.626-60.349c-87.563-52.307-196.003-39.189-268.499,25.006
	c50.432,31.146,114.204,51.451,184.238,55.178C644.283,427.005,695.754,419.626,741.028,404.296z"/>
<path fill="#007297" d="M564.736,544.591c14.734,5.352,29.503,9.811,44.21,13.422l50.062-126.561
	c-14.982,1.611-30.309,2.446-45.899,2.446c-7.758,0-15.578-0.207-23.456-0.626c-32.72-1.741-64.109-7.04-93.492-15.331
	l-35.416,71.401C490.988,511.583,525.989,530.517,564.736,544.591z"/>
<path fill="#007297" d="M453.31,483.736l33.938-68.422c-32.321-9.926-62.043-23.518-88.236-39.992
	c-8.112,7.806-15.717,16.289-22.73,25.429C395.424,430.847,421.534,459.148,453.31,483.736z"/>
<path fill="#007297" d="M439.495,632.038c-47.432-48.799-81.545-106.029-98.743-164.687c-33.535,99.637,5.49,212.59,99.423,268.702
	c67.17,40.125,146.624,41.744,212.717,11.35C580.254,736.809,502.924,697.297,439.495,632.038z"/>
<path fill="#007297" d="M449.186,492.05c-32.195-24.706-58.822-53.164-78.636-83.517c-3.254,4.632-6.365,9.415-9.315,14.353
	c-5.798,9.707-10.779,19.673-14.989,29.816c10.909,43.395,31.435,86.307,60.07,125.778L449.186,492.05z"/>
<path fill="#9AC7D6" d="M617.957,560.125c59.081,13.132,116.828,12.476,166.871-0.137c4.541-52.127-9.029-104.547-38.343-147.95
	c-24.149,8.394-50.029,14.556-77.134,18.157L617.957,560.125z"/>
<path fill="#9AC7D6" d="M614.553,568.729l-55.26,139.701c36.022,17.549,72.863,28.23,108.172,31.629
	c34.361-18.881,64.318-46.855,85.876-82.945c16.542-27.693,26.526-57.474,30.437-87.547c-25.281,6.09-52.375,9.248-80.532,9.248
	C674.518,578.815,644.689,575.524,614.553,568.729z"/>
</svg>
