<svg height="30" viewBox="0 0 512.00042 512" width="30" xmlns="http://www.w3.org/2000/svg"><path d="m69.066406 32.511719c-6.859375 4.585937-8.71875 13.945312-4.136718 20.804687l154.992187 231.964844 34.707031-2.066406-173.082031-259.039063zm0 0" fill="#bbbbc4"/><path d="m274.054688 325.804688-.019532 40.46875 65.617188 98.191406c27.617187 41.324218 83.5 52.4375 124.828125 24.824218 41.324219-27.613281 52.4375-83.5 24.824219-124.824218-27.617188-41.324219-83.503907-52.4375-124.828126-24.824219-7.421874 4.960937-13.871093 10.835937-19.292968 17.375-.90625 1.09375-1.984375 2.078125-3.226563 2.910156-6.886719 4.601563-16.203125 2.75-20.804687-4.136719l-20.058594-30.011718zm90.542968 121.992187c-18.410156-27.546875-11.003906-64.804687 16.546875-83.214844 27.550781-18.410156 64.808594-11 83.21875 16.550781 18.40625 27.546876 11 64.804688-16.550781 83.214844s-64.808594 11-83.214844-16.550781zm0 0" fill="#dddde2"/><path d="m283.058594 298.78125h-54.117188l45.09375 67.488281 27.058594-40.492187zm0 0" fill="#bbbbc4"/><path d="m405.507812 7.507812-4.195312 33.277344-116.179688 173.890625-29.136718 16.609375-36.082032 54 9.023438 13.496094-38.09375 57.007812c-4.601562 6.886719-13.914062 8.738282-20.804688 4.136719-1.242187-.832031-2.316406-1.816406-3.222656-2.910156-5.425781-6.535156-11.875-12.410156-19.296875-17.371094-41.328125-27.613281-97.210937-16.5-124.824219 24.828125-27.613281 41.324219-16.496093 97.207032 24.828126 124.820313 41.328124 27.613281 97.210937 16.496093 124.824218-24.828125l249.714844-373.726563c18.402344-27.546875 10.996094-64.820312-16.554688-83.230469zm-258.101562 440.292969c-18.410156 27.546875-55.667969 34.960938-83.214844 16.550781-27.550781-18.40625-34.960937-55.664062-16.554687-83.214843 18.410156-27.550781 55.664062-34.960938 83.214843-16.550781 27.550782 18.40625 34.960938 55.664062 16.554688 83.214843zm0 0" fill="#dddde2"/><path d="m413.78125 49.117188-121.707031 182.164062-36.078125.003906 149.511718-223.777344c6.882813 4.601563 11.25 11.5625 12.75 19.089844 1.496094 7.53125.125 15.632813-4.476562 22.519532zm0 0" fill="#fff"/><path d="m414.421875 346.957031c-13.351563 0-26.300781 3.9375-37.441406 11.382813-14.992188 10.015625-25.183594 25.269531-28.699219 42.953125-3.519531 17.679687.0625 35.671875 10.078125 50.664062 12.550781 18.785157 33.550781 30 56.171875 30 13.351562 0 26.300781-3.933593 37.445312-11.378906 14.988282-10.015625 25.179688-25.269531 28.699219-42.953125 3.515625-17.683594-.0625-35.675781-10.078125-50.664062-12.554687-18.789063-33.554687-30.003907-56.175781-30.003907zm51.542969 77.742188c-2.734375 13.753906-10.664063 25.617187-22.320313 33.40625-8.667969 5.792969-18.734375 8.855469-29.113281 8.855469-17.601562 0-33.9375-8.726563-43.703125-23.339844-7.789063-11.65625-10.574219-25.652344-7.839844-39.402344 2.738281-13.753906 10.664063-25.617188 22.324219-33.410156 8.667969-5.789063 18.734375-8.851563 29.109375-8.851563 17.601563 0 33.941406 8.722657 43.703125 23.335938 7.792969 11.660156 10.574219 25.652343 7.839844 39.40625zm0 0"/><path d="m135.019531 358.335938c-11.140625-7.445313-24.089843-11.378907-37.441406-11.378907-22.621094 0-43.621094 11.214844-56.175781 30.003907-10.015625 14.988281-13.59375 32.980468-10.078125 50.664062 3.519531 17.679688 13.710937 32.933594 28.699219 42.953125 11.144531 7.441406 24.089843 11.378906 37.441406 11.378906 22.625 0 43.621094-11.214843 56.175781-30.003906 10.015625-14.988281 13.597656-32.980469 10.078125-50.664063-3.515625-17.679687-13.707031-32.933593-28.699219-42.953124zm6.152344 85.285156c-9.765625 14.613281-26.105469 23.339844-43.703125 23.335937-10.378906 0-20.445312-3.0625-29.113281-8.851562-11.65625-7.789063-19.585938-19.65625-22.320313-33.40625-2.738281-13.753907.046875-27.75 7.835938-39.40625 9.765625-14.613281 26.101562-23.335938 43.707031-23.335938 10.375 0 20.441406 3.058594 29.109375 8.851563 11.65625 7.789062 19.585938 19.65625 22.320312 33.40625 2.734376 13.753906-.046874 27.75-7.835937 39.40625zm0 0"/><path d="m495.539062 360.292969c-29.867187-44.695313-90.527343-56.765625-135.226562-26.898438-7.871094 5.257813-14.902344 11.59375-20.90625 18.824219-.460938.5625-1.007812 1.054688-1.617188 1.460938-3.4375 2.296874-8.101562 1.367187-10.398437-2.070313l-35.3125-52.839844 136.21875-203.871093c20.328125-30.421876 12.589844-71.5-17.0625-92.535157-.4375-.328125-.890625-.640625-1.347656-.953125-.070313-.046875-.136719-.097656-.210938-.148437-.207031-.136719-.425781-.269531-.644531-.382813-.128906-.070312-.261719-.125-.390625-.1875-.09375-.039062-.183594-.089844-.277344-.128906-.179687-.074219-.359375-.132812-.539062-.191406-.050781-.015625-.101563-.039063-.148438-.054688-.195312-.054687-.390625-.101562-.585937-.144531-.042969-.007813-.082032-.023437-.125-.03125-.1875-.035156-.378906-.0625-.570313-.0820312-.050781-.0078126-.101562-.0195313-.15625-.0234376-.175781-.015625-.351562-.0195312-.527343-.0273437-.070313 0-.136719-.0078125-.207032-.0078125-.167968 0-.332031.0117188-.496094.0234375-.078124.0039063-.15625.0039063-.234374.0117187-.203126.0195313-.40625.0546876-.605469.0898438-.039063.007812-.078125.011719-.121094.019531-.039063.007813-.078125.019531-.121094.03125-.195312.042969-.394531.085938-.585937.144531-.070313.023438-.136719.050782-.207032.074219-.164062.054688-.324218.109375-.484374.171875-.058594.023438-.113282.054688-.167969.078125-.167969.074219-.335938.152344-.496094.238281-.039063.019532-.078125.046876-.117187.066407-.171876.097656-.347657.199219-.511719.308593-.03125.019532-.054688.042969-.085938.0625-.171875.117188-.339843.242188-.503906.375-.03125.027344-.0625.058594-.09375.082032-.152344.132812-.304687.265625-.449219.40625-.066406.070312-.125.140625-.191406.210937-.101562.109375-.207031.21875-.300781.335938-.160157.191406-.3125.394531-.453125.601562l-179.355469 268.4375-148.753906-222.628906c-2.296875-3.4375-1.371094-8.105469 2.066406-10.402344l6.242187-4.171875 134.210938 200.871094c1.445312 2.164062 3.820312 3.335938 6.242188 3.335938 1.429687 0 2.878906-.410157 4.160156-1.265626 3.441406-2.300781 4.367187-6.957031 2.066406-10.402343l-17.554688-26.273438 18.714844-12.503906c3.441406-2.300781 4.367188-6.957031 2.066406-10.402344-2.300781-3.441406-6.957031-4.371093-10.398437-2.066406l-18.714844 12.5-8.332031-12.46875 18.710938-12.503906c3.445312-2.300781 4.371093-6.957031 2.070312-10.402344-2.300781-3.441406-6.957031-4.367187-10.402344-2.066406l-18.710937 12.5-8.332031-12.472657 18.710937-12.5c3.445313-2.300781 4.371094-6.957031 2.070313-10.402343-2.300782-3.445313-6.960938-4.371094-10.402344-2.070313l-18.710938 12.503906-8.332031-12.472656 18.710937-12.5c3.441407-2.300781 4.367188-6.957031 2.066407-10.402344-2.300781-3.445312-6.957031-4.371093-10.398438-2.070312l-18.710937 12.503906-8.332032-12.472656 18.707032-12.5c3.445312-2.300781 4.371094-6.957031 2.070312-10.402344-2.300781-3.445312-6.957031-4.371094-10.402344-2.070312l-18.707031 12.503906-8.332031-12.472656 18.707031-12.5c3.445313-2.300782 4.371094-6.957032 2.070313-10.402344-2.300782-3.445312-6.960938-4.371094-10.402344-2.070312l-18.707031 12.5-8.332031-12.46875 18.707031-12.5c3.441406-2.300782 4.367187-6.960938 2.066406-10.402344-2.300781-3.445313-6.957031-4.371094-10.402344-2.070313l-18.707031 12.5-8.332031-12.472656 18.707031-12.496094c3.445312-2.300781 4.371094-6.957031 2.070312-10.402343-2.300781-3.445313-6.960937-4.371094-10.402343-2.070313l-24.941407 16.664063c-.003906 0-12.480468 8.335937-12.480468 8.335937-10.316406 6.894531-13.097656 20.894531-6.207032 31.207031 1.398438 2.09375 120.476563 180.308594 154.824219 231.714844.105469.171875.21875.339844.335938.503906 2.527343 3.785156 4.578125 6.851563 6.066406 9.074219l-35.3125 52.84375c-2.296875 3.4375-6.964844 4.363281-10.402344 2.066406-.605469-.40625-1.152343-.894531-1.621093-1.460937-5.996094-7.230469-13.027344-13.5625-20.898438-18.820313-44.699219-29.867187-105.359375-17.800781-135.226562 26.898438-14.46875 21.652343-19.640626 47.644531-14.558594 73.183593 5.082031 25.539063 19.804687 47.574219 41.457031 62.042969 16.222656 10.839844 34.882813 16.460938 53.960937 16.460938 6.386719 0 12.816407-.628907 19.222657-1.902344 25.539062-5.082031 47.574219-19.804687 62.039062-41.457031l77.417969-115.859375 77.417969 115.859375c18.773437 28.097656 49.710937 43.300781 81.207031 43.300781 18.609375 0 37.417969-5.308594 54.015625-16.402344 21.652344-14.46875 36.375-36.5 41.457031-62.042969 5.082032-25.539062-.089844-51.53125-14.558594-73.183593zm-88.683593-341.308594c1.984375 2.652344 3.390625 5.722656 4.054687 9.070313 1.171875 5.894531-.019531 11.890624-3.359375 16.886718l-119.480469 178.835938-18.042968-.003906zm-240.742188 441.304687c-25.273437 37.820313-76.597656 48.03125-114.421875 22.757813-18.320312-12.242187-30.777344-30.882813-35.078125-52.496094-4.300781-21.609375.074219-43.601562 12.316407-61.921875 15.886718-23.773437 42.066406-36.640625 68.714843-36.640625 15.75 0 31.660157 4.492188 45.707031 13.878907 6.667969 4.453124 12.617188 9.8125 17.6875 15.917968 1.390626 1.679688 3.015626 3.148438 4.835938 4.363282 10.3125 6.894531 24.3125 4.105468 31.203125-6.207032l38.09375-57.003906c.546875-.820312.929687-1.738281 1.121094-2.703125.605469-3.046875-.21875-4.285156-2.960938-8.386719l-4.394531-6.578125 31.066406-46.496093 32.074219.003906c2.503906 0 4.84375-1.25 6.234375-3.335938l121.707031-182.167968c1.40625-2.097657 2.578125-4.304688 3.519531-6.585938 2.773438 13.320312.425782 27.699219-7.710937 39.875l-166.007813 248.449219c-.050781.074219-.097656.144531-.144531.21875zm329.273438-29.738281c-4.300781 21.613281-16.757813 40.253907-35.078125 52.496094-18.320313 12.242187-40.3125 16.621094-61.925782 12.320313-21.609374-4.300782-40.253906-16.757813-52.496093-35.078126l-80.867188-121.027343 18.039063-26.996094 31.859375 47.679687c6.894531 10.3125 20.890625 13.09375 31.210937 6.203126 1.8125-1.214844 3.441406-2.679688 4.828125-4.355469 5.070313-6.113281 11.023438-11.472657 17.6875-15.925781 37.820313-25.269532 89.152344-15.0625 114.425781 22.761718 12.238282 18.320313 16.613282 40.3125 12.316407 61.921875zm0 0"/></svg>