<svg xmlns="http://www.w3.org/2000/svg" xmlns:xlink="http://www.w3.org/1999/xlink" xmlns:svgjs="http://svgjs.com/svgjs" version="1.1" width="512" height="512" x="0" y="0" viewBox="0 0 512 512" style="enable-background:new 0 0 512 512" xml:space="preserve"><g><linearGradient xmlns="http://www.w3.org/2000/svg" id="SVGID_1_" gradientUnits="userSpaceOnUse" x1="105.23" x2="502.024" y1="503.102" y2="106.308"><stop stop-opacity="1" stop-color="#fcc60e" offset="0"/><stop stop-opacity="1" stop-color="#ffffff" offset="0"/></linearGradient><path xmlns="http://www.w3.org/2000/svg" clip-rule="evenodd" d="m251.935 282.64c1.238.714 2.619 1.072 4 1.072s2.763-.357 4-1.072l46.144-26.641c1.216-.702 2.226-1.712 2.928-2.928l112.779-195.34c8.326-14.421 3.368-32.928-11.054-41.254l-7.691-4.44c-14.42-8.325-32.928-3.367-41.255 11.054l-112.779 195.339c-.702 1.216-1.072 2.596-1.072 4v53.281c0 2.858 1.524 5.499 4 6.929zm12-46.354 22.143 12.784-22.144 12.784zm111.708-205.196c3.915-6.781 12.617-9.113 19.398-5.198l7.691 4.44c3.271 1.888 5.614 4.952 6.599 8.627.984 3.675.487 7.5-1.402 10.771l-108.779 188.412-32.287-18.64zm106.682 288.192c-4.465-7.456-22.775-29.603-70.887-1.582l-84.083 48.974c-3.775 2.198-7.61 3.812-11.588 4.855 1.374-2.417 2.467-5.097 3.251-8.022 4.373-16.319-5.318-33.355-22.062-38.783-.343-.111-.693-.199-1.047-.263-24.123-4.351-47.951-12.965-67.098-19.888-6.661-2.408-12.953-4.683-18.308-6.419-21.738-7.053-41.328 1.647-57.623 11.087l-62.07 35.964-4.254-7.517c-2.674-4.726-7.042-8.131-12.297-9.587-5.256-1.457-10.752-.786-15.478 1.889l-23.591 13.351c-4.726 2.674-8.131 7.042-9.587 12.296-1.457 5.255-.786 10.752 1.888 15.478l69.359 122.552c2.674 4.726 7.042 8.131 12.297 9.587 1.817.503 3.663.753 5.497.753 3.468 0 6.889-.892 9.98-2.642l23.591-13.352c4.726-2.674 8.131-7.042 9.587-12.296 1.457-5.255.786-10.752-1.888-15.478l-8.274-14.62 13.603-7.854 107.478 28.798c5.989 1.605 11.946 2.403 17.807 2.403 11.852 0 23.302-3.263 33.77-9.707l152.59-93.958c14.148-8.71 18.646-30.644 9.437-46.019zm-339.941 152.161c-.183.659-.691 1.878-2.049 2.646l-23.592 13.352c-1.357.769-2.665.578-3.323.395-.658-.182-1.877-.691-2.646-2.049l-69.358-122.552c-.769-1.358-.577-2.665-.395-3.323.183-.659.691-1.878 2.049-2.646l23.592-13.352c.755-.428 1.496-.558 2.117-.558.495 0 .914.083 1.206.164.659.183 1.878.691 2.646 2.049l69.359 122.551c.768 1.358.577 2.665.394 3.323zm322.115-119.766-152.59 93.958c-11.969 7.368-25.106 9.211-39.046 5.474l-110.679-29.656c-2.053-.549-4.234-.262-6.071.799l-16.354 9.442-41.069-72.565 62.212-36.044c13.908-8.057 28.945-14.811 44.666-9.712 5.102 1.655 10.988 3.783 17.804 6.247 19.562 7.072 43.871 15.861 69.115 20.481 8.493 2.987 13.241 11.186 11.076 19.265-2.267 8.464-8.524 12.171-18.607 11.01-13.163-2.638-25.108-6.026-37.608-9.572-5.587-1.584-11.365-3.223-17.443-4.852-4.265-1.142-8.654 1.39-9.798 5.657-1.144 4.268 1.389 8.654 5.657 9.798 5.965 1.598 11.686 3.221 17.218 4.79 12.91 3.662 25.246 7.161 39.06 9.915.042.008.083.017.124.024 3.39.674 6.87 1.304 10.468 1.88 15.766 2.521 29.757.063 42.773-7.516l84.083-48.974c23.917-13.929 42.274-15.434 49.108-4.023 4.694 7.835 2.625 20.035-4.099 24.174zm-392.644 12.988c.673 4.603-2.513 8.88-7.116 9.553s-8.88-2.513-9.553-7.116 2.513-8.88 7.116-9.553 8.88 2.513 9.553 7.116z" fill="url(#SVGID_1_)" fill-rule="evenodd" data-original="url(#SVGID_1_)"/></g></svg>
